%TF.GenerationSoftware,KiCad,Pcbnew,(6.0.0)*%
%TF.CreationDate,2022-01-10T14:57:04+03:00*%
%TF.ProjectId,ModuleControl,4d6f6475-6c65-4436-9f6e-74726f6c2e6b,rev?*%
%TF.SameCoordinates,Original*%
%TF.FileFunction,Legend,Top*%
%TF.FilePolarity,Positive*%
%FSLAX46Y46*%
G04 Gerber Fmt 4.6, Leading zero omitted, Abs format (unit mm)*
G04 Created by KiCad (PCBNEW (6.0.0)) date 2022-01-10 14:57:04*
%MOMM*%
%LPD*%
G01*
G04 APERTURE LIST*
%ADD10C,0.150000*%
%ADD11C,0.120000*%
G04 APERTURE END LIST*
D10*
X165112333Y-89066714D02*
X165493285Y-89066714D01*
X165255190Y-88733380D02*
X165255190Y-89590523D01*
X165302809Y-89685761D01*
X165398047Y-89733380D01*
X165493285Y-89733380D01*
X165969476Y-89733380D02*
X165874238Y-89685761D01*
X165826619Y-89638142D01*
X165779000Y-89542904D01*
X165779000Y-89257190D01*
X165826619Y-89161952D01*
X165874238Y-89114333D01*
X165969476Y-89066714D01*
X166112333Y-89066714D01*
X166207571Y-89114333D01*
X166255190Y-89161952D01*
X166302809Y-89257190D01*
X166302809Y-89542904D01*
X166255190Y-89638142D01*
X166207571Y-89685761D01*
X166112333Y-89733380D01*
X165969476Y-89733380D01*
X167921857Y-89685761D02*
X167826619Y-89733380D01*
X167636142Y-89733380D01*
X167540904Y-89685761D01*
X167493285Y-89638142D01*
X167445666Y-89542904D01*
X167445666Y-89257190D01*
X167493285Y-89161952D01*
X167540904Y-89114333D01*
X167636142Y-89066714D01*
X167826619Y-89066714D01*
X167921857Y-89114333D01*
X168493285Y-89733380D02*
X168398047Y-89685761D01*
X168350428Y-89638142D01*
X168302809Y-89542904D01*
X168302809Y-89257190D01*
X168350428Y-89161952D01*
X168398047Y-89114333D01*
X168493285Y-89066714D01*
X168636142Y-89066714D01*
X168731380Y-89114333D01*
X168779000Y-89161952D01*
X168826619Y-89257190D01*
X168826619Y-89542904D01*
X168779000Y-89638142D01*
X168731380Y-89685761D01*
X168636142Y-89733380D01*
X168493285Y-89733380D01*
X169255190Y-89066714D02*
X169255190Y-89733380D01*
X169255190Y-89161952D02*
X169302809Y-89114333D01*
X169398047Y-89066714D01*
X169540904Y-89066714D01*
X169636142Y-89114333D01*
X169683761Y-89209571D01*
X169683761Y-89733380D01*
X170017095Y-89066714D02*
X170398047Y-89066714D01*
X170159952Y-88733380D02*
X170159952Y-89590523D01*
X170207571Y-89685761D01*
X170302809Y-89733380D01*
X170398047Y-89733380D01*
X170731380Y-89733380D02*
X170731380Y-89066714D01*
X170731380Y-89257190D02*
X170779000Y-89161952D01*
X170826619Y-89114333D01*
X170921857Y-89066714D01*
X171017095Y-89066714D01*
X171493285Y-89733380D02*
X171398047Y-89685761D01*
X171350428Y-89638142D01*
X171302809Y-89542904D01*
X171302809Y-89257190D01*
X171350428Y-89161952D01*
X171398047Y-89114333D01*
X171493285Y-89066714D01*
X171636142Y-89066714D01*
X171731380Y-89114333D01*
X171779000Y-89161952D01*
X171826619Y-89257190D01*
X171826619Y-89542904D01*
X171779000Y-89638142D01*
X171731380Y-89685761D01*
X171636142Y-89733380D01*
X171493285Y-89733380D01*
X172398047Y-89733380D02*
X172302809Y-89685761D01*
X172255190Y-89590523D01*
X172255190Y-88733380D01*
X135759476Y-89701714D02*
X136140428Y-89701714D01*
X135902333Y-90368380D02*
X135902333Y-89511238D01*
X135949952Y-89416000D01*
X136045190Y-89368380D01*
X136140428Y-89368380D01*
X136473761Y-90368380D02*
X136473761Y-89701714D01*
X136473761Y-89892190D02*
X136521380Y-89796952D01*
X136569000Y-89749333D01*
X136664238Y-89701714D01*
X136759476Y-89701714D01*
X137235666Y-90368380D02*
X137140428Y-90320761D01*
X137092809Y-90273142D01*
X137045190Y-90177904D01*
X137045190Y-89892190D01*
X137092809Y-89796952D01*
X137140428Y-89749333D01*
X137235666Y-89701714D01*
X137378523Y-89701714D01*
X137473761Y-89749333D01*
X137521380Y-89796952D01*
X137569000Y-89892190D01*
X137569000Y-90177904D01*
X137521380Y-90273142D01*
X137473761Y-90320761D01*
X137378523Y-90368380D01*
X137235666Y-90368380D01*
X137997571Y-90368380D02*
X137997571Y-89701714D01*
X137997571Y-89796952D02*
X138045190Y-89749333D01*
X138140428Y-89701714D01*
X138283285Y-89701714D01*
X138378523Y-89749333D01*
X138426142Y-89844571D01*
X138426142Y-90368380D01*
X138426142Y-89844571D02*
X138473761Y-89749333D01*
X138569000Y-89701714D01*
X138711857Y-89701714D01*
X138807095Y-89749333D01*
X138854714Y-89844571D01*
X138854714Y-90368380D01*
X140092809Y-89701714D02*
X140092809Y-90701714D01*
X140092809Y-89749333D02*
X140188047Y-89701714D01*
X140378523Y-89701714D01*
X140473761Y-89749333D01*
X140521380Y-89796952D01*
X140569000Y-89892190D01*
X140569000Y-90177904D01*
X140521380Y-90273142D01*
X140473761Y-90320761D01*
X140378523Y-90368380D01*
X140188047Y-90368380D01*
X140092809Y-90320761D01*
X140949952Y-90320761D02*
X141045190Y-90368380D01*
X141235666Y-90368380D01*
X141330904Y-90320761D01*
X141378523Y-90225523D01*
X141378523Y-90177904D01*
X141330904Y-90082666D01*
X141235666Y-90035047D01*
X141092809Y-90035047D01*
X140997571Y-89987428D01*
X140949952Y-89892190D01*
X140949952Y-89844571D01*
X140997571Y-89749333D01*
X141092809Y-89701714D01*
X141235666Y-89701714D01*
X141330904Y-89749333D01*
X142235666Y-89701714D02*
X142235666Y-90368380D01*
X141997571Y-89320761D02*
X141759476Y-90035047D01*
X142378523Y-90035047D01*
X142902333Y-89796952D02*
X142807095Y-89749333D01*
X142759476Y-89701714D01*
X142711857Y-89606476D01*
X142711857Y-89558857D01*
X142759476Y-89463619D01*
X142807095Y-89416000D01*
X142902333Y-89368380D01*
X143092809Y-89368380D01*
X143188047Y-89416000D01*
X143235666Y-89463619D01*
X143283285Y-89558857D01*
X143283285Y-89606476D01*
X143235666Y-89701714D01*
X143188047Y-89749333D01*
X143092809Y-89796952D01*
X142902333Y-89796952D01*
X142807095Y-89844571D01*
X142759476Y-89892190D01*
X142711857Y-89987428D01*
X142711857Y-90177904D01*
X142759476Y-90273142D01*
X142807095Y-90320761D01*
X142902333Y-90368380D01*
X143092809Y-90368380D01*
X143188047Y-90320761D01*
X143235666Y-90273142D01*
X143283285Y-90177904D01*
X143283285Y-89987428D01*
X143235666Y-89892190D01*
X143188047Y-89844571D01*
X143092809Y-89796952D01*
X126837571Y-89701714D02*
X127218523Y-89701714D01*
X126980428Y-89368380D02*
X126980428Y-90225523D01*
X127028047Y-90320761D01*
X127123285Y-90368380D01*
X127218523Y-90368380D01*
X127694714Y-90368380D02*
X127599476Y-90320761D01*
X127551857Y-90273142D01*
X127504238Y-90177904D01*
X127504238Y-89892190D01*
X127551857Y-89796952D01*
X127599476Y-89749333D01*
X127694714Y-89701714D01*
X127837571Y-89701714D01*
X127932809Y-89749333D01*
X127980428Y-89796952D01*
X128028047Y-89892190D01*
X128028047Y-90177904D01*
X127980428Y-90273142D01*
X127932809Y-90320761D01*
X127837571Y-90368380D01*
X127694714Y-90368380D01*
X129361380Y-90368380D02*
X129266142Y-90320761D01*
X129218523Y-90225523D01*
X129218523Y-89368380D01*
X130123285Y-90320761D02*
X130028047Y-90368380D01*
X129837571Y-90368380D01*
X129742333Y-90320761D01*
X129694714Y-90225523D01*
X129694714Y-89844571D01*
X129742333Y-89749333D01*
X129837571Y-89701714D01*
X130028047Y-89701714D01*
X130123285Y-89749333D01*
X130170904Y-89844571D01*
X130170904Y-89939809D01*
X129694714Y-90035047D01*
X131028047Y-90368380D02*
X131028047Y-89368380D01*
X131028047Y-90320761D02*
X130932809Y-90368380D01*
X130742333Y-90368380D01*
X130647095Y-90320761D01*
X130599476Y-90273142D01*
X130551857Y-90177904D01*
X130551857Y-89892190D01*
X130599476Y-89796952D01*
X130647095Y-89749333D01*
X130742333Y-89701714D01*
X130932809Y-89701714D01*
X131028047Y-89749333D01*
X131456619Y-90320761D02*
X131551857Y-90368380D01*
X131742333Y-90368380D01*
X131837571Y-90320761D01*
X131885190Y-90225523D01*
X131885190Y-90177904D01*
X131837571Y-90082666D01*
X131742333Y-90035047D01*
X131599476Y-90035047D01*
X131504238Y-89987428D01*
X131456619Y-89892190D01*
X131456619Y-89844571D01*
X131504238Y-89749333D01*
X131599476Y-89701714D01*
X131742333Y-89701714D01*
X131837571Y-89749333D01*
%TO.C,D2*%
X142946380Y-69445095D02*
X141946380Y-69445095D01*
X141946380Y-69207000D01*
X141994000Y-69064142D01*
X142089238Y-68968904D01*
X142184476Y-68921285D01*
X142374952Y-68873666D01*
X142517809Y-68873666D01*
X142708285Y-68921285D01*
X142803523Y-68968904D01*
X142898761Y-69064142D01*
X142946380Y-69207000D01*
X142946380Y-69445095D01*
X142041619Y-68492714D02*
X141994000Y-68445095D01*
X141946380Y-68349857D01*
X141946380Y-68111761D01*
X141994000Y-68016523D01*
X142041619Y-67968904D01*
X142136857Y-67921285D01*
X142232095Y-67921285D01*
X142374952Y-67968904D01*
X142946380Y-68540333D01*
X142946380Y-67921285D01*
X144209047Y-74985571D02*
X144351904Y-75033190D01*
X144399523Y-75080809D01*
X144447142Y-75176047D01*
X144447142Y-75318904D01*
X144399523Y-75414142D01*
X144351904Y-75461761D01*
X144256666Y-75509380D01*
X143875714Y-75509380D01*
X143875714Y-74509380D01*
X144209047Y-74509380D01*
X144304285Y-74557000D01*
X144351904Y-74604619D01*
X144399523Y-74699857D01*
X144399523Y-74795095D01*
X144351904Y-74890333D01*
X144304285Y-74937952D01*
X144209047Y-74985571D01*
X143875714Y-74985571D01*
X144780476Y-74509380D02*
X145447142Y-74509380D01*
X144780476Y-75509380D01*
X145447142Y-75509380D01*
X145732857Y-74509380D02*
X146399523Y-75509380D01*
X146399523Y-74509380D02*
X145732857Y-75509380D01*
X146685238Y-74509380D02*
X147304285Y-74509380D01*
X146970952Y-74890333D01*
X147113809Y-74890333D01*
X147209047Y-74937952D01*
X147256666Y-74985571D01*
X147304285Y-75080809D01*
X147304285Y-75318904D01*
X147256666Y-75414142D01*
X147209047Y-75461761D01*
X147113809Y-75509380D01*
X146828095Y-75509380D01*
X146732857Y-75461761D01*
X146685238Y-75414142D01*
X147875714Y-74937952D02*
X147780476Y-74890333D01*
X147732857Y-74842714D01*
X147685238Y-74747476D01*
X147685238Y-74699857D01*
X147732857Y-74604619D01*
X147780476Y-74557000D01*
X147875714Y-74509380D01*
X148066190Y-74509380D01*
X148161428Y-74557000D01*
X148209047Y-74604619D01*
X148256666Y-74699857D01*
X148256666Y-74747476D01*
X148209047Y-74842714D01*
X148161428Y-74890333D01*
X148066190Y-74937952D01*
X147875714Y-74937952D01*
X147780476Y-74985571D01*
X147732857Y-75033190D01*
X147685238Y-75128428D01*
X147685238Y-75318904D01*
X147732857Y-75414142D01*
X147780476Y-75461761D01*
X147875714Y-75509380D01*
X148066190Y-75509380D01*
X148161428Y-75461761D01*
X148209047Y-75414142D01*
X148256666Y-75318904D01*
X148256666Y-75128428D01*
X148209047Y-75033190D01*
X148161428Y-74985571D01*
X148066190Y-74937952D01*
X149113809Y-74842714D02*
X149113809Y-75509380D01*
X148875714Y-74461761D02*
X148637619Y-75176047D01*
X149256666Y-75176047D01*
X149637619Y-75128428D02*
X150399523Y-75128428D01*
X151209047Y-74985571D02*
X151351904Y-75033190D01*
X151399523Y-75080809D01*
X151447142Y-75176047D01*
X151447142Y-75318904D01*
X151399523Y-75414142D01*
X151351904Y-75461761D01*
X151256666Y-75509380D01*
X150875714Y-75509380D01*
X150875714Y-74509380D01*
X151209047Y-74509380D01*
X151304285Y-74557000D01*
X151351904Y-74604619D01*
X151399523Y-74699857D01*
X151399523Y-74795095D01*
X151351904Y-74890333D01*
X151304285Y-74937952D01*
X151209047Y-74985571D01*
X150875714Y-74985571D01*
X152399523Y-75509380D02*
X151828095Y-75509380D01*
X152113809Y-75509380D02*
X152113809Y-74509380D01*
X152018571Y-74652238D01*
X151923333Y-74747476D01*
X151828095Y-74795095D01*
X153304285Y-74509380D02*
X152828095Y-74509380D01*
X152780476Y-74985571D01*
X152828095Y-74937952D01*
X152923333Y-74890333D01*
X153161428Y-74890333D01*
X153256666Y-74937952D01*
X153304285Y-74985571D01*
X153351904Y-75080809D01*
X153351904Y-75318904D01*
X153304285Y-75414142D01*
X153256666Y-75461761D01*
X153161428Y-75509380D01*
X152923333Y-75509380D01*
X152828095Y-75461761D01*
X152780476Y-75414142D01*
%TO.C,D1*%
X143962380Y-79351095D02*
X142962380Y-79351095D01*
X142962380Y-79113000D01*
X143010000Y-78970142D01*
X143105238Y-78874904D01*
X143200476Y-78827285D01*
X143390952Y-78779666D01*
X143533809Y-78779666D01*
X143724285Y-78827285D01*
X143819523Y-78874904D01*
X143914761Y-78970142D01*
X143962380Y-79113000D01*
X143962380Y-79351095D01*
X143962380Y-77827285D02*
X143962380Y-78398714D01*
X143962380Y-78113000D02*
X142962380Y-78113000D01*
X143105238Y-78208238D01*
X143200476Y-78303476D01*
X143248095Y-78398714D01*
X142300047Y-82986571D02*
X142442904Y-83034190D01*
X142490523Y-83081809D01*
X142538142Y-83177047D01*
X142538142Y-83319904D01*
X142490523Y-83415142D01*
X142442904Y-83462761D01*
X142347666Y-83510380D01*
X141966714Y-83510380D01*
X141966714Y-82510380D01*
X142300047Y-82510380D01*
X142395285Y-82558000D01*
X142442904Y-82605619D01*
X142490523Y-82700857D01*
X142490523Y-82796095D01*
X142442904Y-82891333D01*
X142395285Y-82938952D01*
X142300047Y-82986571D01*
X141966714Y-82986571D01*
X142871476Y-82510380D02*
X143538142Y-82510380D01*
X142871476Y-83510380D01*
X143538142Y-83510380D01*
X143823857Y-82510380D02*
X144490523Y-83510380D01*
X144490523Y-82510380D02*
X143823857Y-83510380D01*
X144776238Y-82510380D02*
X145395285Y-82510380D01*
X145061952Y-82891333D01*
X145204809Y-82891333D01*
X145300047Y-82938952D01*
X145347666Y-82986571D01*
X145395285Y-83081809D01*
X145395285Y-83319904D01*
X145347666Y-83415142D01*
X145300047Y-83462761D01*
X145204809Y-83510380D01*
X144919095Y-83510380D01*
X144823857Y-83462761D01*
X144776238Y-83415142D01*
X145966714Y-82938952D02*
X145871476Y-82891333D01*
X145823857Y-82843714D01*
X145776238Y-82748476D01*
X145776238Y-82700857D01*
X145823857Y-82605619D01*
X145871476Y-82558000D01*
X145966714Y-82510380D01*
X146157190Y-82510380D01*
X146252428Y-82558000D01*
X146300047Y-82605619D01*
X146347666Y-82700857D01*
X146347666Y-82748476D01*
X146300047Y-82843714D01*
X146252428Y-82891333D01*
X146157190Y-82938952D01*
X145966714Y-82938952D01*
X145871476Y-82986571D01*
X145823857Y-83034190D01*
X145776238Y-83129428D01*
X145776238Y-83319904D01*
X145823857Y-83415142D01*
X145871476Y-83462761D01*
X145966714Y-83510380D01*
X146157190Y-83510380D01*
X146252428Y-83462761D01*
X146300047Y-83415142D01*
X146347666Y-83319904D01*
X146347666Y-83129428D01*
X146300047Y-83034190D01*
X146252428Y-82986571D01*
X146157190Y-82938952D01*
X147204809Y-82843714D02*
X147204809Y-83510380D01*
X146966714Y-82462761D02*
X146728619Y-83177047D01*
X147347666Y-83177047D01*
X147728619Y-83129428D02*
X148490523Y-83129428D01*
X149300047Y-82986571D02*
X149442904Y-83034190D01*
X149490523Y-83081809D01*
X149538142Y-83177047D01*
X149538142Y-83319904D01*
X149490523Y-83415142D01*
X149442904Y-83462761D01*
X149347666Y-83510380D01*
X148966714Y-83510380D01*
X148966714Y-82510380D01*
X149300047Y-82510380D01*
X149395285Y-82558000D01*
X149442904Y-82605619D01*
X149490523Y-82700857D01*
X149490523Y-82796095D01*
X149442904Y-82891333D01*
X149395285Y-82938952D01*
X149300047Y-82986571D01*
X148966714Y-82986571D01*
X150490523Y-83510380D02*
X149919095Y-83510380D01*
X150204809Y-83510380D02*
X150204809Y-82510380D01*
X150109571Y-82653238D01*
X150014333Y-82748476D01*
X149919095Y-82796095D01*
X151395285Y-82510380D02*
X150919095Y-82510380D01*
X150871476Y-82986571D01*
X150919095Y-82938952D01*
X151014333Y-82891333D01*
X151252428Y-82891333D01*
X151347666Y-82938952D01*
X151395285Y-82986571D01*
X151442904Y-83081809D01*
X151442904Y-83319904D01*
X151395285Y-83415142D01*
X151347666Y-83462761D01*
X151252428Y-83510380D01*
X151014333Y-83510380D01*
X150919095Y-83462761D01*
X150871476Y-83415142D01*
%TO.C,H20*%
X166172000Y-83272380D02*
X166505333Y-84272380D01*
X166838666Y-83272380D01*
X167172000Y-84272380D02*
X167172000Y-83605714D01*
X167172000Y-83272380D02*
X167124380Y-83320000D01*
X167172000Y-83367619D01*
X167219619Y-83320000D01*
X167172000Y-83272380D01*
X167172000Y-83367619D01*
X167648190Y-83605714D02*
X167648190Y-84272380D01*
X167648190Y-83700952D02*
X167695809Y-83653333D01*
X167791047Y-83605714D01*
X167933904Y-83605714D01*
X168029142Y-83653333D01*
X168076761Y-83748571D01*
X168076761Y-84272380D01*
X168314857Y-84367619D02*
X169076761Y-84367619D01*
X169743428Y-84224761D02*
X169648190Y-84272380D01*
X169457714Y-84272380D01*
X169362476Y-84224761D01*
X169314857Y-84177142D01*
X169267238Y-84081904D01*
X169267238Y-83796190D01*
X169314857Y-83700952D01*
X169362476Y-83653333D01*
X169457714Y-83605714D01*
X169648190Y-83605714D01*
X169743428Y-83653333D01*
X170314857Y-84272380D02*
X170219619Y-84224761D01*
X170172000Y-84177142D01*
X170124380Y-84081904D01*
X170124380Y-83796190D01*
X170172000Y-83700952D01*
X170219619Y-83653333D01*
X170314857Y-83605714D01*
X170457714Y-83605714D01*
X170552952Y-83653333D01*
X170600571Y-83700952D01*
X170648190Y-83796190D01*
X170648190Y-84081904D01*
X170600571Y-84177142D01*
X170552952Y-84224761D01*
X170457714Y-84272380D01*
X170314857Y-84272380D01*
X171076761Y-83605714D02*
X171076761Y-84272380D01*
X171076761Y-83700952D02*
X171124380Y-83653333D01*
X171219619Y-83605714D01*
X171362476Y-83605714D01*
X171457714Y-83653333D01*
X171505333Y-83748571D01*
X171505333Y-84272380D01*
X171838666Y-83605714D02*
X172219619Y-83605714D01*
X171981523Y-83272380D02*
X171981523Y-84129523D01*
X172029142Y-84224761D01*
X172124380Y-84272380D01*
X172219619Y-84272380D01*
X172505333Y-83367619D02*
X172552952Y-83320000D01*
X172648190Y-83272380D01*
X172886285Y-83272380D01*
X172981523Y-83320000D01*
X173029142Y-83367619D01*
X173076761Y-83462857D01*
X173076761Y-83558095D01*
X173029142Y-83700952D01*
X172457714Y-84272380D01*
X173076761Y-84272380D01*
%TO.C,H19*%
X166045000Y-74255380D02*
X166378333Y-75255380D01*
X166711666Y-74255380D01*
X167045000Y-75255380D02*
X167045000Y-74588714D01*
X167045000Y-74255380D02*
X166997380Y-74303000D01*
X167045000Y-74350619D01*
X167092619Y-74303000D01*
X167045000Y-74255380D01*
X167045000Y-74350619D01*
X167521190Y-74588714D02*
X167521190Y-75255380D01*
X167521190Y-74683952D02*
X167568809Y-74636333D01*
X167664047Y-74588714D01*
X167806904Y-74588714D01*
X167902142Y-74636333D01*
X167949761Y-74731571D01*
X167949761Y-75255380D01*
X168187857Y-75350619D02*
X168949761Y-75350619D01*
X169616428Y-75207761D02*
X169521190Y-75255380D01*
X169330714Y-75255380D01*
X169235476Y-75207761D01*
X169187857Y-75160142D01*
X169140238Y-75064904D01*
X169140238Y-74779190D01*
X169187857Y-74683952D01*
X169235476Y-74636333D01*
X169330714Y-74588714D01*
X169521190Y-74588714D01*
X169616428Y-74636333D01*
X170187857Y-75255380D02*
X170092619Y-75207761D01*
X170045000Y-75160142D01*
X169997380Y-75064904D01*
X169997380Y-74779190D01*
X170045000Y-74683952D01*
X170092619Y-74636333D01*
X170187857Y-74588714D01*
X170330714Y-74588714D01*
X170425952Y-74636333D01*
X170473571Y-74683952D01*
X170521190Y-74779190D01*
X170521190Y-75064904D01*
X170473571Y-75160142D01*
X170425952Y-75207761D01*
X170330714Y-75255380D01*
X170187857Y-75255380D01*
X170949761Y-74588714D02*
X170949761Y-75255380D01*
X170949761Y-74683952D02*
X170997380Y-74636333D01*
X171092619Y-74588714D01*
X171235476Y-74588714D01*
X171330714Y-74636333D01*
X171378333Y-74731571D01*
X171378333Y-75255380D01*
X171711666Y-74588714D02*
X172092619Y-74588714D01*
X171854523Y-74255380D02*
X171854523Y-75112523D01*
X171902142Y-75207761D01*
X171997380Y-75255380D01*
X172092619Y-75255380D01*
X172949761Y-75255380D02*
X172378333Y-75255380D01*
X172664047Y-75255380D02*
X172664047Y-74255380D01*
X172568809Y-74398238D01*
X172473571Y-74493476D01*
X172378333Y-74541095D01*
%TO.C,H18*%
X165418000Y-68667380D02*
X165751333Y-69667380D01*
X166084666Y-68667380D01*
X166560857Y-69667380D02*
X166465619Y-69619761D01*
X166418000Y-69572142D01*
X166370380Y-69476904D01*
X166370380Y-69191190D01*
X166418000Y-69095952D01*
X166465619Y-69048333D01*
X166560857Y-69000714D01*
X166703714Y-69000714D01*
X166798952Y-69048333D01*
X166846571Y-69095952D01*
X166894190Y-69191190D01*
X166894190Y-69476904D01*
X166846571Y-69572142D01*
X166798952Y-69619761D01*
X166703714Y-69667380D01*
X166560857Y-69667380D01*
X167751333Y-69000714D02*
X167751333Y-69667380D01*
X167322761Y-69000714D02*
X167322761Y-69524523D01*
X167370380Y-69619761D01*
X167465619Y-69667380D01*
X167608476Y-69667380D01*
X167703714Y-69619761D01*
X167751333Y-69572142D01*
X168084666Y-69000714D02*
X168465619Y-69000714D01*
X168227523Y-68667380D02*
X168227523Y-69524523D01*
X168275142Y-69619761D01*
X168370380Y-69667380D01*
X168465619Y-69667380D01*
X168560857Y-69762619D02*
X169322761Y-69762619D01*
X169989428Y-69619761D02*
X169894190Y-69667380D01*
X169703714Y-69667380D01*
X169608476Y-69619761D01*
X169560857Y-69572142D01*
X169513238Y-69476904D01*
X169513238Y-69191190D01*
X169560857Y-69095952D01*
X169608476Y-69048333D01*
X169703714Y-69000714D01*
X169894190Y-69000714D01*
X169989428Y-69048333D01*
X170560857Y-69667380D02*
X170465619Y-69619761D01*
X170418000Y-69572142D01*
X170370380Y-69476904D01*
X170370380Y-69191190D01*
X170418000Y-69095952D01*
X170465619Y-69048333D01*
X170560857Y-69000714D01*
X170703714Y-69000714D01*
X170798952Y-69048333D01*
X170846571Y-69095952D01*
X170894190Y-69191190D01*
X170894190Y-69476904D01*
X170846571Y-69572142D01*
X170798952Y-69619761D01*
X170703714Y-69667380D01*
X170560857Y-69667380D01*
X171322761Y-69000714D02*
X171322761Y-69667380D01*
X171322761Y-69095952D02*
X171370380Y-69048333D01*
X171465619Y-69000714D01*
X171608476Y-69000714D01*
X171703714Y-69048333D01*
X171751333Y-69143571D01*
X171751333Y-69667380D01*
X172084666Y-69000714D02*
X172465619Y-69000714D01*
X172227523Y-68667380D02*
X172227523Y-69524523D01*
X172275142Y-69619761D01*
X172370380Y-69667380D01*
X172465619Y-69667380D01*
X172751333Y-68762619D02*
X172798952Y-68715000D01*
X172894190Y-68667380D01*
X173132285Y-68667380D01*
X173227523Y-68715000D01*
X173275142Y-68762619D01*
X173322761Y-68857857D01*
X173322761Y-68953095D01*
X173275142Y-69095952D01*
X172703714Y-69667380D01*
X173322761Y-69667380D01*
%TO.C,H17*%
X165291000Y-63079380D02*
X165624333Y-64079380D01*
X165957666Y-63079380D01*
X166433857Y-64079380D02*
X166338619Y-64031761D01*
X166291000Y-63984142D01*
X166243380Y-63888904D01*
X166243380Y-63603190D01*
X166291000Y-63507952D01*
X166338619Y-63460333D01*
X166433857Y-63412714D01*
X166576714Y-63412714D01*
X166671952Y-63460333D01*
X166719571Y-63507952D01*
X166767190Y-63603190D01*
X166767190Y-63888904D01*
X166719571Y-63984142D01*
X166671952Y-64031761D01*
X166576714Y-64079380D01*
X166433857Y-64079380D01*
X167624333Y-63412714D02*
X167624333Y-64079380D01*
X167195761Y-63412714D02*
X167195761Y-63936523D01*
X167243380Y-64031761D01*
X167338619Y-64079380D01*
X167481476Y-64079380D01*
X167576714Y-64031761D01*
X167624333Y-63984142D01*
X167957666Y-63412714D02*
X168338619Y-63412714D01*
X168100523Y-63079380D02*
X168100523Y-63936523D01*
X168148142Y-64031761D01*
X168243380Y-64079380D01*
X168338619Y-64079380D01*
X168433857Y-64174619D02*
X169195761Y-64174619D01*
X169862428Y-64031761D02*
X169767190Y-64079380D01*
X169576714Y-64079380D01*
X169481476Y-64031761D01*
X169433857Y-63984142D01*
X169386238Y-63888904D01*
X169386238Y-63603190D01*
X169433857Y-63507952D01*
X169481476Y-63460333D01*
X169576714Y-63412714D01*
X169767190Y-63412714D01*
X169862428Y-63460333D01*
X170433857Y-64079380D02*
X170338619Y-64031761D01*
X170291000Y-63984142D01*
X170243380Y-63888904D01*
X170243380Y-63603190D01*
X170291000Y-63507952D01*
X170338619Y-63460333D01*
X170433857Y-63412714D01*
X170576714Y-63412714D01*
X170671952Y-63460333D01*
X170719571Y-63507952D01*
X170767190Y-63603190D01*
X170767190Y-63888904D01*
X170719571Y-63984142D01*
X170671952Y-64031761D01*
X170576714Y-64079380D01*
X170433857Y-64079380D01*
X171195761Y-63412714D02*
X171195761Y-64079380D01*
X171195761Y-63507952D02*
X171243380Y-63460333D01*
X171338619Y-63412714D01*
X171481476Y-63412714D01*
X171576714Y-63460333D01*
X171624333Y-63555571D01*
X171624333Y-64079380D01*
X171957666Y-63412714D02*
X172338619Y-63412714D01*
X172100523Y-63079380D02*
X172100523Y-63936523D01*
X172148142Y-64031761D01*
X172243380Y-64079380D01*
X172338619Y-64079380D01*
X173195761Y-64079380D02*
X172624333Y-64079380D01*
X172910047Y-64079380D02*
X172910047Y-63079380D01*
X172814809Y-63222238D01*
X172719571Y-63317476D01*
X172624333Y-63365095D01*
%TO.C,H8*%
X122606952Y-88161761D02*
X122511714Y-88209380D01*
X122321238Y-88209380D01*
X122226000Y-88161761D01*
X122178380Y-88114142D01*
X122130761Y-88018904D01*
X122130761Y-87733190D01*
X122178380Y-87637952D01*
X122226000Y-87590333D01*
X122321238Y-87542714D01*
X122511714Y-87542714D01*
X122606952Y-87590333D01*
X123035523Y-88209380D02*
X123035523Y-87209380D01*
X123464095Y-88209380D02*
X123464095Y-87685571D01*
X123416476Y-87590333D01*
X123321238Y-87542714D01*
X123178380Y-87542714D01*
X123083142Y-87590333D01*
X123035523Y-87637952D01*
X123940285Y-88209380D02*
X123940285Y-87542714D01*
X123940285Y-87733190D02*
X123987904Y-87637952D01*
X124035523Y-87590333D01*
X124130761Y-87542714D01*
X124226000Y-87542714D01*
X124987904Y-87542714D02*
X124987904Y-88352238D01*
X124940285Y-88447476D01*
X124892666Y-88495095D01*
X124797428Y-88542714D01*
X124654571Y-88542714D01*
X124559333Y-88495095D01*
X124987904Y-88161761D02*
X124892666Y-88209380D01*
X124702190Y-88209380D01*
X124606952Y-88161761D01*
X124559333Y-88114142D01*
X124511714Y-88018904D01*
X124511714Y-87733190D01*
X124559333Y-87637952D01*
X124606952Y-87590333D01*
X124702190Y-87542714D01*
X124892666Y-87542714D01*
X124987904Y-87590333D01*
X125226000Y-88304619D02*
X125987904Y-88304619D01*
X126368857Y-88209380D02*
X126273619Y-88161761D01*
X126226000Y-88066523D01*
X126226000Y-87209380D01*
X127130761Y-88161761D02*
X127035523Y-88209380D01*
X126845047Y-88209380D01*
X126749809Y-88161761D01*
X126702190Y-88066523D01*
X126702190Y-87685571D01*
X126749809Y-87590333D01*
X126845047Y-87542714D01*
X127035523Y-87542714D01*
X127130761Y-87590333D01*
X127178380Y-87685571D01*
X127178380Y-87780809D01*
X126702190Y-87876047D01*
X128035523Y-88209380D02*
X128035523Y-87209380D01*
X128035523Y-88161761D02*
X127940285Y-88209380D01*
X127749809Y-88209380D01*
X127654571Y-88161761D01*
X127606952Y-88114142D01*
X127559333Y-88018904D01*
X127559333Y-87733190D01*
X127606952Y-87637952D01*
X127654571Y-87590333D01*
X127749809Y-87542714D01*
X127940285Y-87542714D01*
X128035523Y-87590333D01*
X128511714Y-87828428D02*
X129273619Y-87828428D01*
X128892666Y-88209380D02*
X128892666Y-87447476D01*
%TO.C,H7*%
X122733952Y-85113761D02*
X122638714Y-85161380D01*
X122448238Y-85161380D01*
X122353000Y-85113761D01*
X122305380Y-85066142D01*
X122257761Y-84970904D01*
X122257761Y-84685190D01*
X122305380Y-84589952D01*
X122353000Y-84542333D01*
X122448238Y-84494714D01*
X122638714Y-84494714D01*
X122733952Y-84542333D01*
X123162523Y-85161380D02*
X123162523Y-84161380D01*
X123591095Y-85161380D02*
X123591095Y-84637571D01*
X123543476Y-84542333D01*
X123448238Y-84494714D01*
X123305380Y-84494714D01*
X123210142Y-84542333D01*
X123162523Y-84589952D01*
X124067285Y-85161380D02*
X124067285Y-84494714D01*
X124067285Y-84685190D02*
X124114904Y-84589952D01*
X124162523Y-84542333D01*
X124257761Y-84494714D01*
X124353000Y-84494714D01*
X125114904Y-84494714D02*
X125114904Y-85304238D01*
X125067285Y-85399476D01*
X125019666Y-85447095D01*
X124924428Y-85494714D01*
X124781571Y-85494714D01*
X124686333Y-85447095D01*
X125114904Y-85113761D02*
X125019666Y-85161380D01*
X124829190Y-85161380D01*
X124733952Y-85113761D01*
X124686333Y-85066142D01*
X124638714Y-84970904D01*
X124638714Y-84685190D01*
X124686333Y-84589952D01*
X124733952Y-84542333D01*
X124829190Y-84494714D01*
X125019666Y-84494714D01*
X125114904Y-84542333D01*
X125353000Y-85256619D02*
X126114904Y-85256619D01*
X126495857Y-85161380D02*
X126400619Y-85113761D01*
X126353000Y-85018523D01*
X126353000Y-84161380D01*
X127257761Y-85113761D02*
X127162523Y-85161380D01*
X126972047Y-85161380D01*
X126876809Y-85113761D01*
X126829190Y-85018523D01*
X126829190Y-84637571D01*
X126876809Y-84542333D01*
X126972047Y-84494714D01*
X127162523Y-84494714D01*
X127257761Y-84542333D01*
X127305380Y-84637571D01*
X127305380Y-84732809D01*
X126829190Y-84828047D01*
X128162523Y-85161380D02*
X128162523Y-84161380D01*
X128162523Y-85113761D02*
X128067285Y-85161380D01*
X127876809Y-85161380D01*
X127781571Y-85113761D01*
X127733952Y-85066142D01*
X127686333Y-84970904D01*
X127686333Y-84685190D01*
X127733952Y-84589952D01*
X127781571Y-84542333D01*
X127876809Y-84494714D01*
X128067285Y-84494714D01*
X128162523Y-84542333D01*
X128638714Y-84780428D02*
X129400619Y-84780428D01*
%TO.C,H6*%
X122686333Y-79208380D02*
X123019666Y-80208380D01*
X123353000Y-79208380D01*
X123686333Y-80208380D02*
X123686333Y-79541714D01*
X123686333Y-79208380D02*
X123638714Y-79256000D01*
X123686333Y-79303619D01*
X123733952Y-79256000D01*
X123686333Y-79208380D01*
X123686333Y-79303619D01*
X124162523Y-79541714D02*
X124162523Y-80208380D01*
X124162523Y-79636952D02*
X124210142Y-79589333D01*
X124305380Y-79541714D01*
X124448238Y-79541714D01*
X124543476Y-79589333D01*
X124591095Y-79684571D01*
X124591095Y-80208380D01*
X124829190Y-80303619D02*
X125591095Y-80303619D01*
X125972047Y-80208380D02*
X125876809Y-80160761D01*
X125829190Y-80065523D01*
X125829190Y-79208380D01*
X126733952Y-80160761D02*
X126638714Y-80208380D01*
X126448238Y-80208380D01*
X126353000Y-80160761D01*
X126305380Y-80065523D01*
X126305380Y-79684571D01*
X126353000Y-79589333D01*
X126448238Y-79541714D01*
X126638714Y-79541714D01*
X126733952Y-79589333D01*
X126781571Y-79684571D01*
X126781571Y-79779809D01*
X126305380Y-79875047D01*
X127638714Y-80208380D02*
X127638714Y-79208380D01*
X127638714Y-80160761D02*
X127543476Y-80208380D01*
X127353000Y-80208380D01*
X127257761Y-80160761D01*
X127210142Y-80113142D01*
X127162523Y-80017904D01*
X127162523Y-79732190D01*
X127210142Y-79636952D01*
X127257761Y-79589333D01*
X127353000Y-79541714D01*
X127543476Y-79541714D01*
X127638714Y-79589333D01*
X128114904Y-79827428D02*
X128876809Y-79827428D01*
%TO.C,H5*%
X122559333Y-76033380D02*
X122892666Y-77033380D01*
X123226000Y-76033380D01*
X123559333Y-77033380D02*
X123559333Y-76366714D01*
X123559333Y-76033380D02*
X123511714Y-76081000D01*
X123559333Y-76128619D01*
X123606952Y-76081000D01*
X123559333Y-76033380D01*
X123559333Y-76128619D01*
X124035523Y-76366714D02*
X124035523Y-77033380D01*
X124035523Y-76461952D02*
X124083142Y-76414333D01*
X124178380Y-76366714D01*
X124321238Y-76366714D01*
X124416476Y-76414333D01*
X124464095Y-76509571D01*
X124464095Y-77033380D01*
X124702190Y-77128619D02*
X125464095Y-77128619D01*
X125845047Y-77033380D02*
X125749809Y-76985761D01*
X125702190Y-76890523D01*
X125702190Y-76033380D01*
X126606952Y-76985761D02*
X126511714Y-77033380D01*
X126321238Y-77033380D01*
X126226000Y-76985761D01*
X126178380Y-76890523D01*
X126178380Y-76509571D01*
X126226000Y-76414333D01*
X126321238Y-76366714D01*
X126511714Y-76366714D01*
X126606952Y-76414333D01*
X126654571Y-76509571D01*
X126654571Y-76604809D01*
X126178380Y-76700047D01*
X127511714Y-77033380D02*
X127511714Y-76033380D01*
X127511714Y-76985761D02*
X127416476Y-77033380D01*
X127226000Y-77033380D01*
X127130761Y-76985761D01*
X127083142Y-76938142D01*
X127035523Y-76842904D01*
X127035523Y-76557190D01*
X127083142Y-76461952D01*
X127130761Y-76414333D01*
X127226000Y-76366714D01*
X127416476Y-76366714D01*
X127511714Y-76414333D01*
X127987904Y-76652428D02*
X128749809Y-76652428D01*
X128368857Y-77033380D02*
X128368857Y-76271476D01*
%TO.C,H4*%
X122825238Y-72588380D02*
X122730000Y-72540761D01*
X122682380Y-72493142D01*
X122634761Y-72397904D01*
X122634761Y-72112190D01*
X122682380Y-72016952D01*
X122730000Y-71969333D01*
X122825238Y-71921714D01*
X122968095Y-71921714D01*
X123063333Y-71969333D01*
X123110952Y-72016952D01*
X123158571Y-72112190D01*
X123158571Y-72397904D01*
X123110952Y-72493142D01*
X123063333Y-72540761D01*
X122968095Y-72588380D01*
X122825238Y-72588380D01*
X123491904Y-71921714D02*
X123730000Y-72588380D01*
X123968095Y-71921714D01*
X124349047Y-72588380D02*
X124349047Y-71921714D01*
X124349047Y-72112190D02*
X124396666Y-72016952D01*
X124444285Y-71969333D01*
X124539523Y-71921714D01*
X124634761Y-71921714D01*
X124730000Y-72683619D02*
X125491904Y-72683619D01*
X125872857Y-72588380D02*
X125777619Y-72540761D01*
X125730000Y-72445523D01*
X125730000Y-71588380D01*
X126634761Y-72540761D02*
X126539523Y-72588380D01*
X126349047Y-72588380D01*
X126253809Y-72540761D01*
X126206190Y-72445523D01*
X126206190Y-72064571D01*
X126253809Y-71969333D01*
X126349047Y-71921714D01*
X126539523Y-71921714D01*
X126634761Y-71969333D01*
X126682380Y-72064571D01*
X126682380Y-72159809D01*
X126206190Y-72255047D01*
X127539523Y-72588380D02*
X127539523Y-71588380D01*
X127539523Y-72540761D02*
X127444285Y-72588380D01*
X127253809Y-72588380D01*
X127158571Y-72540761D01*
X127110952Y-72493142D01*
X127063333Y-72397904D01*
X127063333Y-72112190D01*
X127110952Y-72016952D01*
X127158571Y-71969333D01*
X127253809Y-71921714D01*
X127444285Y-71921714D01*
X127539523Y-71969333D01*
X128015714Y-72207428D02*
X128777619Y-72207428D01*
X128396666Y-72588380D02*
X128396666Y-71826476D01*
%TO.C,H3*%
X122825238Y-69794380D02*
X122730000Y-69746761D01*
X122682380Y-69699142D01*
X122634761Y-69603904D01*
X122634761Y-69318190D01*
X122682380Y-69222952D01*
X122730000Y-69175333D01*
X122825238Y-69127714D01*
X122968095Y-69127714D01*
X123063333Y-69175333D01*
X123110952Y-69222952D01*
X123158571Y-69318190D01*
X123158571Y-69603904D01*
X123110952Y-69699142D01*
X123063333Y-69746761D01*
X122968095Y-69794380D01*
X122825238Y-69794380D01*
X123491904Y-69127714D02*
X123730000Y-69794380D01*
X123968095Y-69127714D01*
X124349047Y-69794380D02*
X124349047Y-69127714D01*
X124349047Y-69318190D02*
X124396666Y-69222952D01*
X124444285Y-69175333D01*
X124539523Y-69127714D01*
X124634761Y-69127714D01*
X124730000Y-69889619D02*
X125491904Y-69889619D01*
X125872857Y-69794380D02*
X125777619Y-69746761D01*
X125730000Y-69651523D01*
X125730000Y-68794380D01*
X126634761Y-69746761D02*
X126539523Y-69794380D01*
X126349047Y-69794380D01*
X126253809Y-69746761D01*
X126206190Y-69651523D01*
X126206190Y-69270571D01*
X126253809Y-69175333D01*
X126349047Y-69127714D01*
X126539523Y-69127714D01*
X126634761Y-69175333D01*
X126682380Y-69270571D01*
X126682380Y-69365809D01*
X126206190Y-69461047D01*
X127539523Y-69794380D02*
X127539523Y-68794380D01*
X127539523Y-69746761D02*
X127444285Y-69794380D01*
X127253809Y-69794380D01*
X127158571Y-69746761D01*
X127110952Y-69699142D01*
X127063333Y-69603904D01*
X127063333Y-69318190D01*
X127110952Y-69222952D01*
X127158571Y-69175333D01*
X127253809Y-69127714D01*
X127444285Y-69127714D01*
X127539523Y-69175333D01*
X128015714Y-69413428D02*
X128777619Y-69413428D01*
%TO.C,H2*%
X122063333Y-64222380D02*
X122396666Y-65222380D01*
X122730000Y-64222380D01*
X123206190Y-65222380D02*
X123110952Y-65174761D01*
X123063333Y-65127142D01*
X123015714Y-65031904D01*
X123015714Y-64746190D01*
X123063333Y-64650952D01*
X123110952Y-64603333D01*
X123206190Y-64555714D01*
X123349047Y-64555714D01*
X123444285Y-64603333D01*
X123491904Y-64650952D01*
X123539523Y-64746190D01*
X123539523Y-65031904D01*
X123491904Y-65127142D01*
X123444285Y-65174761D01*
X123349047Y-65222380D01*
X123206190Y-65222380D01*
X124396666Y-64555714D02*
X124396666Y-65222380D01*
X123968095Y-64555714D02*
X123968095Y-65079523D01*
X124015714Y-65174761D01*
X124110952Y-65222380D01*
X124253809Y-65222380D01*
X124349047Y-65174761D01*
X124396666Y-65127142D01*
X124730000Y-64555714D02*
X125110952Y-64555714D01*
X124872857Y-64222380D02*
X124872857Y-65079523D01*
X124920476Y-65174761D01*
X125015714Y-65222380D01*
X125110952Y-65222380D01*
X125206190Y-65317619D02*
X125968095Y-65317619D01*
X126349047Y-65222380D02*
X126253809Y-65174761D01*
X126206190Y-65079523D01*
X126206190Y-64222380D01*
X127110952Y-65174761D02*
X127015714Y-65222380D01*
X126825238Y-65222380D01*
X126730000Y-65174761D01*
X126682380Y-65079523D01*
X126682380Y-64698571D01*
X126730000Y-64603333D01*
X126825238Y-64555714D01*
X127015714Y-64555714D01*
X127110952Y-64603333D01*
X127158571Y-64698571D01*
X127158571Y-64793809D01*
X126682380Y-64889047D01*
X128015714Y-65222380D02*
X128015714Y-64222380D01*
X128015714Y-65174761D02*
X127920476Y-65222380D01*
X127730000Y-65222380D01*
X127634761Y-65174761D01*
X127587142Y-65127142D01*
X127539523Y-65031904D01*
X127539523Y-64746190D01*
X127587142Y-64650952D01*
X127634761Y-64603333D01*
X127730000Y-64555714D01*
X127920476Y-64555714D01*
X128015714Y-64603333D01*
X128491904Y-64841428D02*
X129253809Y-64841428D01*
%TO.C,H1*%
X122063333Y-61682380D02*
X122396666Y-62682380D01*
X122730000Y-61682380D01*
X123206190Y-62682380D02*
X123110952Y-62634761D01*
X123063333Y-62587142D01*
X123015714Y-62491904D01*
X123015714Y-62206190D01*
X123063333Y-62110952D01*
X123110952Y-62063333D01*
X123206190Y-62015714D01*
X123349047Y-62015714D01*
X123444285Y-62063333D01*
X123491904Y-62110952D01*
X123539523Y-62206190D01*
X123539523Y-62491904D01*
X123491904Y-62587142D01*
X123444285Y-62634761D01*
X123349047Y-62682380D01*
X123206190Y-62682380D01*
X124396666Y-62015714D02*
X124396666Y-62682380D01*
X123968095Y-62015714D02*
X123968095Y-62539523D01*
X124015714Y-62634761D01*
X124110952Y-62682380D01*
X124253809Y-62682380D01*
X124349047Y-62634761D01*
X124396666Y-62587142D01*
X124730000Y-62015714D02*
X125110952Y-62015714D01*
X124872857Y-61682380D02*
X124872857Y-62539523D01*
X124920476Y-62634761D01*
X125015714Y-62682380D01*
X125110952Y-62682380D01*
X125206190Y-62777619D02*
X125968095Y-62777619D01*
X126349047Y-62682380D02*
X126253809Y-62634761D01*
X126206190Y-62539523D01*
X126206190Y-61682380D01*
X127110952Y-62634761D02*
X127015714Y-62682380D01*
X126825238Y-62682380D01*
X126730000Y-62634761D01*
X126682380Y-62539523D01*
X126682380Y-62158571D01*
X126730000Y-62063333D01*
X126825238Y-62015714D01*
X127015714Y-62015714D01*
X127110952Y-62063333D01*
X127158571Y-62158571D01*
X127158571Y-62253809D01*
X126682380Y-62349047D01*
X128015714Y-62682380D02*
X128015714Y-61682380D01*
X128015714Y-62634761D02*
X127920476Y-62682380D01*
X127730000Y-62682380D01*
X127634761Y-62634761D01*
X127587142Y-62587142D01*
X127539523Y-62491904D01*
X127539523Y-62206190D01*
X127587142Y-62110952D01*
X127634761Y-62063333D01*
X127730000Y-62015714D01*
X127920476Y-62015714D01*
X128015714Y-62063333D01*
X128491904Y-62301428D02*
X129253809Y-62301428D01*
X128872857Y-62682380D02*
X128872857Y-61920476D01*
%TO.C,U1*%
X155321095Y-74636380D02*
X155321095Y-75445904D01*
X155368714Y-75541142D01*
X155416333Y-75588761D01*
X155511571Y-75636380D01*
X155702047Y-75636380D01*
X155797285Y-75588761D01*
X155844904Y-75541142D01*
X155892523Y-75445904D01*
X155892523Y-74636380D01*
X156892523Y-75636380D02*
X156321095Y-75636380D01*
X156606809Y-75636380D02*
X156606809Y-74636380D01*
X156511571Y-74779238D01*
X156416333Y-74874476D01*
X156321095Y-74922095D01*
X146863952Y-82018142D02*
X146816333Y-82065761D01*
X146673476Y-82113380D01*
X146578238Y-82113380D01*
X146435380Y-82065761D01*
X146340142Y-81970523D01*
X146292523Y-81875285D01*
X146244904Y-81684809D01*
X146244904Y-81541952D01*
X146292523Y-81351476D01*
X146340142Y-81256238D01*
X146435380Y-81161000D01*
X146578238Y-81113380D01*
X146673476Y-81113380D01*
X146816333Y-81161000D01*
X146863952Y-81208619D01*
X147292523Y-82113380D02*
X147292523Y-81113380D01*
X147673476Y-81113380D01*
X147768714Y-81161000D01*
X147816333Y-81208619D01*
X147863952Y-81303857D01*
X147863952Y-81446714D01*
X147816333Y-81541952D01*
X147768714Y-81589571D01*
X147673476Y-81637190D01*
X147292523Y-81637190D01*
X148863952Y-82018142D02*
X148816333Y-82065761D01*
X148673476Y-82113380D01*
X148578238Y-82113380D01*
X148435380Y-82065761D01*
X148340142Y-81970523D01*
X148292523Y-81875285D01*
X148244904Y-81684809D01*
X148244904Y-81541952D01*
X148292523Y-81351476D01*
X148340142Y-81256238D01*
X148435380Y-81161000D01*
X148578238Y-81113380D01*
X148673476Y-81113380D01*
X148816333Y-81161000D01*
X148863952Y-81208619D01*
X149816333Y-82113380D02*
X149244904Y-82113380D01*
X149530619Y-82113380D02*
X149530619Y-81113380D01*
X149435380Y-81256238D01*
X149340142Y-81351476D01*
X149244904Y-81399095D01*
X150435380Y-81113380D02*
X150530619Y-81113380D01*
X150625857Y-81161000D01*
X150673476Y-81208619D01*
X150721095Y-81303857D01*
X150768714Y-81494333D01*
X150768714Y-81732428D01*
X150721095Y-81922904D01*
X150673476Y-82018142D01*
X150625857Y-82065761D01*
X150530619Y-82113380D01*
X150435380Y-82113380D01*
X150340142Y-82065761D01*
X150292523Y-82018142D01*
X150244904Y-81922904D01*
X150197285Y-81732428D01*
X150197285Y-81494333D01*
X150244904Y-81303857D01*
X150292523Y-81208619D01*
X150340142Y-81161000D01*
X150435380Y-81113380D01*
X151102047Y-81113380D02*
X151721095Y-81113380D01*
X151387761Y-81494333D01*
X151530619Y-81494333D01*
X151625857Y-81541952D01*
X151673476Y-81589571D01*
X151721095Y-81684809D01*
X151721095Y-81922904D01*
X151673476Y-82018142D01*
X151625857Y-82065761D01*
X151530619Y-82113380D01*
X151244904Y-82113380D01*
X151149666Y-82065761D01*
X151102047Y-82018142D01*
X152340142Y-81113380D02*
X152435380Y-81113380D01*
X152530619Y-81161000D01*
X152578238Y-81208619D01*
X152625857Y-81303857D01*
X152673476Y-81494333D01*
X152673476Y-81732428D01*
X152625857Y-81922904D01*
X152578238Y-82018142D01*
X152530619Y-82065761D01*
X152435380Y-82113380D01*
X152340142Y-82113380D01*
X152244904Y-82065761D01*
X152197285Y-82018142D01*
X152149666Y-81922904D01*
X152102047Y-81732428D01*
X152102047Y-81494333D01*
X152149666Y-81303857D01*
X152197285Y-81208619D01*
X152244904Y-81161000D01*
X152340142Y-81113380D01*
X153102047Y-82113380D02*
X153102047Y-81113380D01*
X153673476Y-82113380D01*
X153673476Y-81113380D01*
%TO.C,U2*%
X150622095Y-66302380D02*
X150622095Y-67111904D01*
X150669714Y-67207142D01*
X150717333Y-67254761D01*
X150812571Y-67302380D01*
X151003047Y-67302380D01*
X151098285Y-67254761D01*
X151145904Y-67207142D01*
X151193523Y-67111904D01*
X151193523Y-66302380D01*
X151622095Y-66397619D02*
X151669714Y-66350000D01*
X151764952Y-66302380D01*
X152003047Y-66302380D01*
X152098285Y-66350000D01*
X152145904Y-66397619D01*
X152193523Y-66492857D01*
X152193523Y-66588095D01*
X152145904Y-66730952D01*
X151574476Y-67302380D01*
X152193523Y-67302380D01*
X148264952Y-74017142D02*
X148217333Y-74064761D01*
X148074476Y-74112380D01*
X147979238Y-74112380D01*
X147836380Y-74064761D01*
X147741142Y-73969523D01*
X147693523Y-73874285D01*
X147645904Y-73683809D01*
X147645904Y-73540952D01*
X147693523Y-73350476D01*
X147741142Y-73255238D01*
X147836380Y-73160000D01*
X147979238Y-73112380D01*
X148074476Y-73112380D01*
X148217333Y-73160000D01*
X148264952Y-73207619D01*
X148693523Y-74112380D02*
X148693523Y-73112380D01*
X149074476Y-73112380D01*
X149169714Y-73160000D01*
X149217333Y-73207619D01*
X149264952Y-73302857D01*
X149264952Y-73445714D01*
X149217333Y-73540952D01*
X149169714Y-73588571D01*
X149074476Y-73636190D01*
X148693523Y-73636190D01*
X150264952Y-74017142D02*
X150217333Y-74064761D01*
X150074476Y-74112380D01*
X149979238Y-74112380D01*
X149836380Y-74064761D01*
X149741142Y-73969523D01*
X149693523Y-73874285D01*
X149645904Y-73683809D01*
X149645904Y-73540952D01*
X149693523Y-73350476D01*
X149741142Y-73255238D01*
X149836380Y-73160000D01*
X149979238Y-73112380D01*
X150074476Y-73112380D01*
X150217333Y-73160000D01*
X150264952Y-73207619D01*
X151217333Y-74112380D02*
X150645904Y-74112380D01*
X150931619Y-74112380D02*
X150931619Y-73112380D01*
X150836380Y-73255238D01*
X150741142Y-73350476D01*
X150645904Y-73398095D01*
X151836380Y-73112380D02*
X151931619Y-73112380D01*
X152026857Y-73160000D01*
X152074476Y-73207619D01*
X152122095Y-73302857D01*
X152169714Y-73493333D01*
X152169714Y-73731428D01*
X152122095Y-73921904D01*
X152074476Y-74017142D01*
X152026857Y-74064761D01*
X151931619Y-74112380D01*
X151836380Y-74112380D01*
X151741142Y-74064761D01*
X151693523Y-74017142D01*
X151645904Y-73921904D01*
X151598285Y-73731428D01*
X151598285Y-73493333D01*
X151645904Y-73302857D01*
X151693523Y-73207619D01*
X151741142Y-73160000D01*
X151836380Y-73112380D01*
X152503047Y-73112380D02*
X153122095Y-73112380D01*
X152788761Y-73493333D01*
X152931619Y-73493333D01*
X153026857Y-73540952D01*
X153074476Y-73588571D01*
X153122095Y-73683809D01*
X153122095Y-73921904D01*
X153074476Y-74017142D01*
X153026857Y-74064761D01*
X152931619Y-74112380D01*
X152645904Y-74112380D01*
X152550666Y-74064761D01*
X152503047Y-74017142D01*
X153741142Y-73112380D02*
X153836380Y-73112380D01*
X153931619Y-73160000D01*
X153979238Y-73207619D01*
X154026857Y-73302857D01*
X154074476Y-73493333D01*
X154074476Y-73731428D01*
X154026857Y-73921904D01*
X153979238Y-74017142D01*
X153931619Y-74064761D01*
X153836380Y-74112380D01*
X153741142Y-74112380D01*
X153645904Y-74064761D01*
X153598285Y-74017142D01*
X153550666Y-73921904D01*
X153503047Y-73731428D01*
X153503047Y-73493333D01*
X153550666Y-73302857D01*
X153598285Y-73207619D01*
X153645904Y-73160000D01*
X153741142Y-73112380D01*
X154503047Y-74112380D02*
X154503047Y-73112380D01*
X155074476Y-74112380D01*
X155074476Y-73112380D01*
%TO.C,R1*%
X141245833Y-75213380D02*
X140912500Y-74737190D01*
X140674404Y-75213380D02*
X140674404Y-74213380D01*
X141055357Y-74213380D01*
X141150595Y-74261000D01*
X141198214Y-74308619D01*
X141245833Y-74403857D01*
X141245833Y-74546714D01*
X141198214Y-74641952D01*
X141150595Y-74689571D01*
X141055357Y-74737190D01*
X140674404Y-74737190D01*
X142198214Y-75213380D02*
X141626785Y-75213380D01*
X141912500Y-75213380D02*
X141912500Y-74213380D01*
X141817261Y-74356238D01*
X141722023Y-74451476D01*
X141626785Y-74499095D01*
X141364880Y-77853380D02*
X141460119Y-77853380D01*
X141555357Y-77901000D01*
X141602976Y-77948619D01*
X141650595Y-78043857D01*
X141698214Y-78234333D01*
X141698214Y-78472428D01*
X141650595Y-78662904D01*
X141602976Y-78758142D01*
X141555357Y-78805761D01*
X141460119Y-78853380D01*
X141364880Y-78853380D01*
X141269642Y-78805761D01*
X141222023Y-78758142D01*
X141174404Y-78662904D01*
X141126785Y-78472428D01*
X141126785Y-78234333D01*
X141174404Y-78043857D01*
X141222023Y-77948619D01*
X141269642Y-77901000D01*
X141364880Y-77853380D01*
%TO.C,R2*%
X141880833Y-60862380D02*
X141547500Y-60386190D01*
X141309404Y-60862380D02*
X141309404Y-59862380D01*
X141690357Y-59862380D01*
X141785595Y-59910000D01*
X141833214Y-59957619D01*
X141880833Y-60052857D01*
X141880833Y-60195714D01*
X141833214Y-60290952D01*
X141785595Y-60338571D01*
X141690357Y-60386190D01*
X141309404Y-60386190D01*
X142261785Y-59957619D02*
X142309404Y-59910000D01*
X142404642Y-59862380D01*
X142642738Y-59862380D01*
X142737976Y-59910000D01*
X142785595Y-59957619D01*
X142833214Y-60052857D01*
X142833214Y-60148095D01*
X142785595Y-60290952D01*
X142214166Y-60862380D01*
X142833214Y-60862380D01*
X141999880Y-63841380D02*
X142095119Y-63841380D01*
X142190357Y-63889000D01*
X142237976Y-63936619D01*
X142285595Y-64031857D01*
X142333214Y-64222333D01*
X142333214Y-64460428D01*
X142285595Y-64650904D01*
X142237976Y-64746142D01*
X142190357Y-64793761D01*
X142095119Y-64841380D01*
X141999880Y-64841380D01*
X141904642Y-64793761D01*
X141857023Y-64746142D01*
X141809404Y-64650904D01*
X141761785Y-64460428D01*
X141761785Y-64222333D01*
X141809404Y-64031857D01*
X141857023Y-63936619D01*
X141904642Y-63889000D01*
X141999880Y-63841380D01*
%TO.C,F1*%
X163365666Y-83579571D02*
X163032333Y-83579571D01*
X163032333Y-84103380D02*
X163032333Y-83103380D01*
X163508523Y-83103380D01*
X164413285Y-84103380D02*
X163841857Y-84103380D01*
X164127571Y-84103380D02*
X164127571Y-83103380D01*
X164032333Y-83246238D01*
X163937095Y-83341476D01*
X163841857Y-83389095D01*
X151269476Y-87193380D02*
X151269476Y-86193380D01*
X151602809Y-86907666D01*
X151936142Y-86193380D01*
X151936142Y-87193380D01*
X152745666Y-86669571D02*
X152412333Y-86669571D01*
X152412333Y-87193380D02*
X152412333Y-86193380D01*
X152888523Y-86193380D01*
X153269476Y-86812428D02*
X154031380Y-86812428D01*
X154507571Y-86193380D02*
X154507571Y-87002904D01*
X154555190Y-87098142D01*
X154602809Y-87145761D01*
X154698047Y-87193380D01*
X154888523Y-87193380D01*
X154983761Y-87145761D01*
X155031380Y-87098142D01*
X155079000Y-87002904D01*
X155079000Y-86193380D01*
X155507571Y-87145761D02*
X155650428Y-87193380D01*
X155888523Y-87193380D01*
X155983761Y-87145761D01*
X156031380Y-87098142D01*
X156079000Y-87002904D01*
X156079000Y-86907666D01*
X156031380Y-86812428D01*
X155983761Y-86764809D01*
X155888523Y-86717190D01*
X155698047Y-86669571D01*
X155602809Y-86621952D01*
X155555190Y-86574333D01*
X155507571Y-86479095D01*
X155507571Y-86383857D01*
X155555190Y-86288619D01*
X155602809Y-86241000D01*
X155698047Y-86193380D01*
X155936142Y-86193380D01*
X156079000Y-86241000D01*
X156507571Y-87193380D02*
X156507571Y-86193380D01*
X156840904Y-86907666D01*
X157174238Y-86193380D01*
X157174238Y-87193380D01*
X157983761Y-86669571D02*
X157650428Y-86669571D01*
X157650428Y-87193380D02*
X157650428Y-86193380D01*
X158126619Y-86193380D01*
X158698047Y-86193380D02*
X158793285Y-86193380D01*
X158888523Y-86241000D01*
X158936142Y-86288619D01*
X158983761Y-86383857D01*
X159031380Y-86574333D01*
X159031380Y-86812428D01*
X158983761Y-87002904D01*
X158936142Y-87098142D01*
X158888523Y-87145761D01*
X158793285Y-87193380D01*
X158698047Y-87193380D01*
X158602809Y-87145761D01*
X158555190Y-87098142D01*
X158507571Y-87002904D01*
X158459952Y-86812428D01*
X158459952Y-86574333D01*
X158507571Y-86383857D01*
X158555190Y-86288619D01*
X158602809Y-86241000D01*
X158698047Y-86193380D01*
X159650428Y-86193380D02*
X159745666Y-86193380D01*
X159840904Y-86241000D01*
X159888523Y-86288619D01*
X159936142Y-86383857D01*
X159983761Y-86574333D01*
X159983761Y-86812428D01*
X159936142Y-87002904D01*
X159888523Y-87098142D01*
X159840904Y-87145761D01*
X159745666Y-87193380D01*
X159650428Y-87193380D01*
X159555190Y-87145761D01*
X159507571Y-87098142D01*
X159459952Y-87002904D01*
X159412333Y-86812428D01*
X159412333Y-86574333D01*
X159459952Y-86383857D01*
X159507571Y-86288619D01*
X159555190Y-86241000D01*
X159650428Y-86193380D01*
X160888523Y-86193380D02*
X160412333Y-86193380D01*
X160364714Y-86669571D01*
X160412333Y-86621952D01*
X160507571Y-86574333D01*
X160745666Y-86574333D01*
X160840904Y-86621952D01*
X160888523Y-86669571D01*
X160936142Y-86764809D01*
X160936142Y-87002904D01*
X160888523Y-87098142D01*
X160840904Y-87145761D01*
X160745666Y-87193380D01*
X160507571Y-87193380D01*
X160412333Y-87145761D01*
X160364714Y-87098142D01*
%TO.C,F2*%
X163496666Y-69228571D02*
X163163333Y-69228571D01*
X163163333Y-69752380D02*
X163163333Y-68752380D01*
X163639523Y-68752380D01*
X163972857Y-68847619D02*
X164020476Y-68800000D01*
X164115714Y-68752380D01*
X164353809Y-68752380D01*
X164449047Y-68800000D01*
X164496666Y-68847619D01*
X164544285Y-68942857D01*
X164544285Y-69038095D01*
X164496666Y-69180952D01*
X163925238Y-69752380D01*
X164544285Y-69752380D01*
X156480476Y-73392380D02*
X156480476Y-72392380D01*
X156813809Y-73106666D01*
X157147142Y-72392380D01*
X157147142Y-73392380D01*
X157956666Y-72868571D02*
X157623333Y-72868571D01*
X157623333Y-73392380D02*
X157623333Y-72392380D01*
X158099523Y-72392380D01*
X158480476Y-73011428D02*
X159242380Y-73011428D01*
X159718571Y-72392380D02*
X159718571Y-73201904D01*
X159766190Y-73297142D01*
X159813809Y-73344761D01*
X159909047Y-73392380D01*
X160099523Y-73392380D01*
X160194761Y-73344761D01*
X160242380Y-73297142D01*
X160290000Y-73201904D01*
X160290000Y-72392380D01*
X160718571Y-73344761D02*
X160861428Y-73392380D01*
X161099523Y-73392380D01*
X161194761Y-73344761D01*
X161242380Y-73297142D01*
X161290000Y-73201904D01*
X161290000Y-73106666D01*
X161242380Y-73011428D01*
X161194761Y-72963809D01*
X161099523Y-72916190D01*
X160909047Y-72868571D01*
X160813809Y-72820952D01*
X160766190Y-72773333D01*
X160718571Y-72678095D01*
X160718571Y-72582857D01*
X160766190Y-72487619D01*
X160813809Y-72440000D01*
X160909047Y-72392380D01*
X161147142Y-72392380D01*
X161290000Y-72440000D01*
X161718571Y-73392380D02*
X161718571Y-72392380D01*
X162051904Y-73106666D01*
X162385238Y-72392380D01*
X162385238Y-73392380D01*
X163194761Y-72868571D02*
X162861428Y-72868571D01*
X162861428Y-73392380D02*
X162861428Y-72392380D01*
X163337619Y-72392380D01*
X163909047Y-72392380D02*
X164004285Y-72392380D01*
X164099523Y-72440000D01*
X164147142Y-72487619D01*
X164194761Y-72582857D01*
X164242380Y-72773333D01*
X164242380Y-73011428D01*
X164194761Y-73201904D01*
X164147142Y-73297142D01*
X164099523Y-73344761D01*
X164004285Y-73392380D01*
X163909047Y-73392380D01*
X163813809Y-73344761D01*
X163766190Y-73297142D01*
X163718571Y-73201904D01*
X163670952Y-73011428D01*
X163670952Y-72773333D01*
X163718571Y-72582857D01*
X163766190Y-72487619D01*
X163813809Y-72440000D01*
X163909047Y-72392380D01*
X164861428Y-72392380D02*
X164956666Y-72392380D01*
X165051904Y-72440000D01*
X165099523Y-72487619D01*
X165147142Y-72582857D01*
X165194761Y-72773333D01*
X165194761Y-73011428D01*
X165147142Y-73201904D01*
X165099523Y-73297142D01*
X165051904Y-73344761D01*
X164956666Y-73392380D01*
X164861428Y-73392380D01*
X164766190Y-73344761D01*
X164718571Y-73297142D01*
X164670952Y-73201904D01*
X164623333Y-73011428D01*
X164623333Y-72773333D01*
X164670952Y-72582857D01*
X164718571Y-72487619D01*
X164766190Y-72440000D01*
X164861428Y-72392380D01*
X166099523Y-72392380D02*
X165623333Y-72392380D01*
X165575714Y-72868571D01*
X165623333Y-72820952D01*
X165718571Y-72773333D01*
X165956666Y-72773333D01*
X166051904Y-72820952D01*
X166099523Y-72868571D01*
X166147142Y-72963809D01*
X166147142Y-73201904D01*
X166099523Y-73297142D01*
X166051904Y-73344761D01*
X165956666Y-73392380D01*
X165718571Y-73392380D01*
X165623333Y-73344761D01*
X165575714Y-73297142D01*
%TO.C,D4*%
X156150380Y-83669095D02*
X155150380Y-83669095D01*
X155150380Y-83431000D01*
X155198000Y-83288142D01*
X155293238Y-83192904D01*
X155388476Y-83145285D01*
X155578952Y-83097666D01*
X155721809Y-83097666D01*
X155912285Y-83145285D01*
X156007523Y-83192904D01*
X156102761Y-83288142D01*
X156150380Y-83431000D01*
X156150380Y-83669095D01*
X155483714Y-82240523D02*
X156150380Y-82240523D01*
X155102761Y-82478619D02*
X155817047Y-82716714D01*
X155817047Y-82097666D01*
X159318047Y-80319571D02*
X159460904Y-80367190D01*
X159508523Y-80414809D01*
X159556142Y-80510047D01*
X159556142Y-80652904D01*
X159508523Y-80748142D01*
X159460904Y-80795761D01*
X159365666Y-80843380D01*
X158984714Y-80843380D01*
X158984714Y-79843380D01*
X159318047Y-79843380D01*
X159413285Y-79891000D01*
X159460904Y-79938619D01*
X159508523Y-80033857D01*
X159508523Y-80129095D01*
X159460904Y-80224333D01*
X159413285Y-80271952D01*
X159318047Y-80319571D01*
X158984714Y-80319571D01*
X159889476Y-79843380D02*
X160556142Y-79843380D01*
X159889476Y-80843380D01*
X160556142Y-80843380D01*
X160841857Y-79843380D02*
X161508523Y-80843380D01*
X161508523Y-79843380D02*
X160841857Y-80843380D01*
X161794238Y-79843380D02*
X162413285Y-79843380D01*
X162079952Y-80224333D01*
X162222809Y-80224333D01*
X162318047Y-80271952D01*
X162365666Y-80319571D01*
X162413285Y-80414809D01*
X162413285Y-80652904D01*
X162365666Y-80748142D01*
X162318047Y-80795761D01*
X162222809Y-80843380D01*
X161937095Y-80843380D01*
X161841857Y-80795761D01*
X161794238Y-80748142D01*
X162984714Y-80271952D02*
X162889476Y-80224333D01*
X162841857Y-80176714D01*
X162794238Y-80081476D01*
X162794238Y-80033857D01*
X162841857Y-79938619D01*
X162889476Y-79891000D01*
X162984714Y-79843380D01*
X163175190Y-79843380D01*
X163270428Y-79891000D01*
X163318047Y-79938619D01*
X163365666Y-80033857D01*
X163365666Y-80081476D01*
X163318047Y-80176714D01*
X163270428Y-80224333D01*
X163175190Y-80271952D01*
X162984714Y-80271952D01*
X162889476Y-80319571D01*
X162841857Y-80367190D01*
X162794238Y-80462428D01*
X162794238Y-80652904D01*
X162841857Y-80748142D01*
X162889476Y-80795761D01*
X162984714Y-80843380D01*
X163175190Y-80843380D01*
X163270428Y-80795761D01*
X163318047Y-80748142D01*
X163365666Y-80652904D01*
X163365666Y-80462428D01*
X163318047Y-80367190D01*
X163270428Y-80319571D01*
X163175190Y-80271952D01*
X164222809Y-80176714D02*
X164222809Y-80843380D01*
X163984714Y-79795761D02*
X163746619Y-80510047D01*
X164365666Y-80510047D01*
X164746619Y-80462428D02*
X165508523Y-80462428D01*
X166318047Y-80319571D02*
X166460904Y-80367190D01*
X166508523Y-80414809D01*
X166556142Y-80510047D01*
X166556142Y-80652904D01*
X166508523Y-80748142D01*
X166460904Y-80795761D01*
X166365666Y-80843380D01*
X165984714Y-80843380D01*
X165984714Y-79843380D01*
X166318047Y-79843380D01*
X166413285Y-79891000D01*
X166460904Y-79938619D01*
X166508523Y-80033857D01*
X166508523Y-80129095D01*
X166460904Y-80224333D01*
X166413285Y-80271952D01*
X166318047Y-80319571D01*
X165984714Y-80319571D01*
X167508523Y-80843380D02*
X166937095Y-80843380D01*
X167222809Y-80843380D02*
X167222809Y-79843380D01*
X167127571Y-79986238D01*
X167032333Y-80081476D01*
X166937095Y-80129095D01*
X168413285Y-79843380D02*
X167937095Y-79843380D01*
X167889476Y-80319571D01*
X167937095Y-80271952D01*
X168032333Y-80224333D01*
X168270428Y-80224333D01*
X168365666Y-80271952D01*
X168413285Y-80319571D01*
X168460904Y-80414809D01*
X168460904Y-80652904D01*
X168413285Y-80748142D01*
X168365666Y-80795761D01*
X168270428Y-80843380D01*
X168032333Y-80843380D01*
X167937095Y-80795761D01*
X167889476Y-80748142D01*
%TO.C,D3*%
X156277380Y-79859095D02*
X155277380Y-79859095D01*
X155277380Y-79621000D01*
X155325000Y-79478142D01*
X155420238Y-79382904D01*
X155515476Y-79335285D01*
X155705952Y-79287666D01*
X155848809Y-79287666D01*
X156039285Y-79335285D01*
X156134523Y-79382904D01*
X156229761Y-79478142D01*
X156277380Y-79621000D01*
X156277380Y-79859095D01*
X155277380Y-78954333D02*
X155277380Y-78335285D01*
X155658333Y-78668619D01*
X155658333Y-78525761D01*
X155705952Y-78430523D01*
X155753571Y-78382904D01*
X155848809Y-78335285D01*
X156086904Y-78335285D01*
X156182142Y-78382904D01*
X156229761Y-78430523D01*
X156277380Y-78525761D01*
X156277380Y-78811476D01*
X156229761Y-78906714D01*
X156182142Y-78954333D01*
X159318047Y-79049571D02*
X159460904Y-79097190D01*
X159508523Y-79144809D01*
X159556142Y-79240047D01*
X159556142Y-79382904D01*
X159508523Y-79478142D01*
X159460904Y-79525761D01*
X159365666Y-79573380D01*
X158984714Y-79573380D01*
X158984714Y-78573380D01*
X159318047Y-78573380D01*
X159413285Y-78621000D01*
X159460904Y-78668619D01*
X159508523Y-78763857D01*
X159508523Y-78859095D01*
X159460904Y-78954333D01*
X159413285Y-79001952D01*
X159318047Y-79049571D01*
X158984714Y-79049571D01*
X159889476Y-78573380D02*
X160556142Y-78573380D01*
X159889476Y-79573380D01*
X160556142Y-79573380D01*
X160841857Y-78573380D02*
X161508523Y-79573380D01*
X161508523Y-78573380D02*
X160841857Y-79573380D01*
X161794238Y-78573380D02*
X162413285Y-78573380D01*
X162079952Y-78954333D01*
X162222809Y-78954333D01*
X162318047Y-79001952D01*
X162365666Y-79049571D01*
X162413285Y-79144809D01*
X162413285Y-79382904D01*
X162365666Y-79478142D01*
X162318047Y-79525761D01*
X162222809Y-79573380D01*
X161937095Y-79573380D01*
X161841857Y-79525761D01*
X161794238Y-79478142D01*
X162984714Y-79001952D02*
X162889476Y-78954333D01*
X162841857Y-78906714D01*
X162794238Y-78811476D01*
X162794238Y-78763857D01*
X162841857Y-78668619D01*
X162889476Y-78621000D01*
X162984714Y-78573380D01*
X163175190Y-78573380D01*
X163270428Y-78621000D01*
X163318047Y-78668619D01*
X163365666Y-78763857D01*
X163365666Y-78811476D01*
X163318047Y-78906714D01*
X163270428Y-78954333D01*
X163175190Y-79001952D01*
X162984714Y-79001952D01*
X162889476Y-79049571D01*
X162841857Y-79097190D01*
X162794238Y-79192428D01*
X162794238Y-79382904D01*
X162841857Y-79478142D01*
X162889476Y-79525761D01*
X162984714Y-79573380D01*
X163175190Y-79573380D01*
X163270428Y-79525761D01*
X163318047Y-79478142D01*
X163365666Y-79382904D01*
X163365666Y-79192428D01*
X163318047Y-79097190D01*
X163270428Y-79049571D01*
X163175190Y-79001952D01*
X164222809Y-78906714D02*
X164222809Y-79573380D01*
X163984714Y-78525761D02*
X163746619Y-79240047D01*
X164365666Y-79240047D01*
X164746619Y-79192428D02*
X165508523Y-79192428D01*
X166318047Y-79049571D02*
X166460904Y-79097190D01*
X166508523Y-79144809D01*
X166556142Y-79240047D01*
X166556142Y-79382904D01*
X166508523Y-79478142D01*
X166460904Y-79525761D01*
X166365666Y-79573380D01*
X165984714Y-79573380D01*
X165984714Y-78573380D01*
X166318047Y-78573380D01*
X166413285Y-78621000D01*
X166460904Y-78668619D01*
X166508523Y-78763857D01*
X166508523Y-78859095D01*
X166460904Y-78954333D01*
X166413285Y-79001952D01*
X166318047Y-79049571D01*
X165984714Y-79049571D01*
X167508523Y-79573380D02*
X166937095Y-79573380D01*
X167222809Y-79573380D02*
X167222809Y-78573380D01*
X167127571Y-78716238D01*
X167032333Y-78811476D01*
X166937095Y-78859095D01*
X168413285Y-78573380D02*
X167937095Y-78573380D01*
X167889476Y-79049571D01*
X167937095Y-79001952D01*
X168032333Y-78954333D01*
X168270428Y-78954333D01*
X168365666Y-79001952D01*
X168413285Y-79049571D01*
X168460904Y-79144809D01*
X168460904Y-79382904D01*
X168413285Y-79478142D01*
X168365666Y-79525761D01*
X168270428Y-79573380D01*
X168032333Y-79573380D01*
X167937095Y-79525761D01*
X167889476Y-79478142D01*
%TO.C,D6*%
X156408380Y-69318095D02*
X155408380Y-69318095D01*
X155408380Y-69080000D01*
X155456000Y-68937142D01*
X155551238Y-68841904D01*
X155646476Y-68794285D01*
X155836952Y-68746666D01*
X155979809Y-68746666D01*
X156170285Y-68794285D01*
X156265523Y-68841904D01*
X156360761Y-68937142D01*
X156408380Y-69080000D01*
X156408380Y-69318095D01*
X155408380Y-67889523D02*
X155408380Y-68080000D01*
X155456000Y-68175238D01*
X155503619Y-68222857D01*
X155646476Y-68318095D01*
X155836952Y-68365714D01*
X156217904Y-68365714D01*
X156313142Y-68318095D01*
X156360761Y-68270476D01*
X156408380Y-68175238D01*
X156408380Y-67984761D01*
X156360761Y-67889523D01*
X156313142Y-67841904D01*
X156217904Y-67794285D01*
X155979809Y-67794285D01*
X155884571Y-67841904D01*
X155836952Y-67889523D01*
X155789333Y-67984761D01*
X155789333Y-68175238D01*
X155836952Y-68270476D01*
X155884571Y-68318095D01*
X155979809Y-68365714D01*
X159449047Y-66603571D02*
X159591904Y-66651190D01*
X159639523Y-66698809D01*
X159687142Y-66794047D01*
X159687142Y-66936904D01*
X159639523Y-67032142D01*
X159591904Y-67079761D01*
X159496666Y-67127380D01*
X159115714Y-67127380D01*
X159115714Y-66127380D01*
X159449047Y-66127380D01*
X159544285Y-66175000D01*
X159591904Y-66222619D01*
X159639523Y-66317857D01*
X159639523Y-66413095D01*
X159591904Y-66508333D01*
X159544285Y-66555952D01*
X159449047Y-66603571D01*
X159115714Y-66603571D01*
X160020476Y-66127380D02*
X160687142Y-66127380D01*
X160020476Y-67127380D01*
X160687142Y-67127380D01*
X160972857Y-66127380D02*
X161639523Y-67127380D01*
X161639523Y-66127380D02*
X160972857Y-67127380D01*
X161925238Y-66127380D02*
X162544285Y-66127380D01*
X162210952Y-66508333D01*
X162353809Y-66508333D01*
X162449047Y-66555952D01*
X162496666Y-66603571D01*
X162544285Y-66698809D01*
X162544285Y-66936904D01*
X162496666Y-67032142D01*
X162449047Y-67079761D01*
X162353809Y-67127380D01*
X162068095Y-67127380D01*
X161972857Y-67079761D01*
X161925238Y-67032142D01*
X163115714Y-66555952D02*
X163020476Y-66508333D01*
X162972857Y-66460714D01*
X162925238Y-66365476D01*
X162925238Y-66317857D01*
X162972857Y-66222619D01*
X163020476Y-66175000D01*
X163115714Y-66127380D01*
X163306190Y-66127380D01*
X163401428Y-66175000D01*
X163449047Y-66222619D01*
X163496666Y-66317857D01*
X163496666Y-66365476D01*
X163449047Y-66460714D01*
X163401428Y-66508333D01*
X163306190Y-66555952D01*
X163115714Y-66555952D01*
X163020476Y-66603571D01*
X162972857Y-66651190D01*
X162925238Y-66746428D01*
X162925238Y-66936904D01*
X162972857Y-67032142D01*
X163020476Y-67079761D01*
X163115714Y-67127380D01*
X163306190Y-67127380D01*
X163401428Y-67079761D01*
X163449047Y-67032142D01*
X163496666Y-66936904D01*
X163496666Y-66746428D01*
X163449047Y-66651190D01*
X163401428Y-66603571D01*
X163306190Y-66555952D01*
X164353809Y-66460714D02*
X164353809Y-67127380D01*
X164115714Y-66079761D02*
X163877619Y-66794047D01*
X164496666Y-66794047D01*
X164877619Y-66746428D02*
X165639523Y-66746428D01*
X166449047Y-66603571D02*
X166591904Y-66651190D01*
X166639523Y-66698809D01*
X166687142Y-66794047D01*
X166687142Y-66936904D01*
X166639523Y-67032142D01*
X166591904Y-67079761D01*
X166496666Y-67127380D01*
X166115714Y-67127380D01*
X166115714Y-66127380D01*
X166449047Y-66127380D01*
X166544285Y-66175000D01*
X166591904Y-66222619D01*
X166639523Y-66317857D01*
X166639523Y-66413095D01*
X166591904Y-66508333D01*
X166544285Y-66555952D01*
X166449047Y-66603571D01*
X166115714Y-66603571D01*
X167639523Y-67127380D02*
X167068095Y-67127380D01*
X167353809Y-67127380D02*
X167353809Y-66127380D01*
X167258571Y-66270238D01*
X167163333Y-66365476D01*
X167068095Y-66413095D01*
X168544285Y-66127380D02*
X168068095Y-66127380D01*
X168020476Y-66603571D01*
X168068095Y-66555952D01*
X168163333Y-66508333D01*
X168401428Y-66508333D01*
X168496666Y-66555952D01*
X168544285Y-66603571D01*
X168591904Y-66698809D01*
X168591904Y-66936904D01*
X168544285Y-67032142D01*
X168496666Y-67079761D01*
X168401428Y-67127380D01*
X168163333Y-67127380D01*
X168068095Y-67079761D01*
X168020476Y-67032142D01*
%TO.C,D5*%
X156408380Y-65762095D02*
X155408380Y-65762095D01*
X155408380Y-65524000D01*
X155456000Y-65381142D01*
X155551238Y-65285904D01*
X155646476Y-65238285D01*
X155836952Y-65190666D01*
X155979809Y-65190666D01*
X156170285Y-65238285D01*
X156265523Y-65285904D01*
X156360761Y-65381142D01*
X156408380Y-65524000D01*
X156408380Y-65762095D01*
X155408380Y-64285904D02*
X155408380Y-64762095D01*
X155884571Y-64809714D01*
X155836952Y-64762095D01*
X155789333Y-64666857D01*
X155789333Y-64428761D01*
X155836952Y-64333523D01*
X155884571Y-64285904D01*
X155979809Y-64238285D01*
X156217904Y-64238285D01*
X156313142Y-64285904D01*
X156360761Y-64333523D01*
X156408380Y-64428761D01*
X156408380Y-64666857D01*
X156360761Y-64762095D01*
X156313142Y-64809714D01*
X159449047Y-65079571D02*
X159591904Y-65127190D01*
X159639523Y-65174809D01*
X159687142Y-65270047D01*
X159687142Y-65412904D01*
X159639523Y-65508142D01*
X159591904Y-65555761D01*
X159496666Y-65603380D01*
X159115714Y-65603380D01*
X159115714Y-64603380D01*
X159449047Y-64603380D01*
X159544285Y-64651000D01*
X159591904Y-64698619D01*
X159639523Y-64793857D01*
X159639523Y-64889095D01*
X159591904Y-64984333D01*
X159544285Y-65031952D01*
X159449047Y-65079571D01*
X159115714Y-65079571D01*
X160020476Y-64603380D02*
X160687142Y-64603380D01*
X160020476Y-65603380D01*
X160687142Y-65603380D01*
X160972857Y-64603380D02*
X161639523Y-65603380D01*
X161639523Y-64603380D02*
X160972857Y-65603380D01*
X161925238Y-64603380D02*
X162544285Y-64603380D01*
X162210952Y-64984333D01*
X162353809Y-64984333D01*
X162449047Y-65031952D01*
X162496666Y-65079571D01*
X162544285Y-65174809D01*
X162544285Y-65412904D01*
X162496666Y-65508142D01*
X162449047Y-65555761D01*
X162353809Y-65603380D01*
X162068095Y-65603380D01*
X161972857Y-65555761D01*
X161925238Y-65508142D01*
X163115714Y-65031952D02*
X163020476Y-64984333D01*
X162972857Y-64936714D01*
X162925238Y-64841476D01*
X162925238Y-64793857D01*
X162972857Y-64698619D01*
X163020476Y-64651000D01*
X163115714Y-64603380D01*
X163306190Y-64603380D01*
X163401428Y-64651000D01*
X163449047Y-64698619D01*
X163496666Y-64793857D01*
X163496666Y-64841476D01*
X163449047Y-64936714D01*
X163401428Y-64984333D01*
X163306190Y-65031952D01*
X163115714Y-65031952D01*
X163020476Y-65079571D01*
X162972857Y-65127190D01*
X162925238Y-65222428D01*
X162925238Y-65412904D01*
X162972857Y-65508142D01*
X163020476Y-65555761D01*
X163115714Y-65603380D01*
X163306190Y-65603380D01*
X163401428Y-65555761D01*
X163449047Y-65508142D01*
X163496666Y-65412904D01*
X163496666Y-65222428D01*
X163449047Y-65127190D01*
X163401428Y-65079571D01*
X163306190Y-65031952D01*
X164353809Y-64936714D02*
X164353809Y-65603380D01*
X164115714Y-64555761D02*
X163877619Y-65270047D01*
X164496666Y-65270047D01*
X164877619Y-65222428D02*
X165639523Y-65222428D01*
X166449047Y-65079571D02*
X166591904Y-65127190D01*
X166639523Y-65174809D01*
X166687142Y-65270047D01*
X166687142Y-65412904D01*
X166639523Y-65508142D01*
X166591904Y-65555761D01*
X166496666Y-65603380D01*
X166115714Y-65603380D01*
X166115714Y-64603380D01*
X166449047Y-64603380D01*
X166544285Y-64651000D01*
X166591904Y-64698619D01*
X166639523Y-64793857D01*
X166639523Y-64889095D01*
X166591904Y-64984333D01*
X166544285Y-65031952D01*
X166449047Y-65079571D01*
X166115714Y-65079571D01*
X167639523Y-65603380D02*
X167068095Y-65603380D01*
X167353809Y-65603380D02*
X167353809Y-64603380D01*
X167258571Y-64746238D01*
X167163333Y-64841476D01*
X167068095Y-64889095D01*
X168544285Y-64603380D02*
X168068095Y-64603380D01*
X168020476Y-65079571D01*
X168068095Y-65031952D01*
X168163333Y-64984333D01*
X168401428Y-64984333D01*
X168496666Y-65031952D01*
X168544285Y-65079571D01*
X168591904Y-65174809D01*
X168591904Y-65412904D01*
X168544285Y-65508142D01*
X168496666Y-65555761D01*
X168401428Y-65603380D01*
X168163333Y-65603380D01*
X168068095Y-65555761D01*
X168020476Y-65508142D01*
D11*
%TO.C,D2*%
X145503000Y-68096000D02*
X143803000Y-68096000D01*
X143803000Y-68096000D02*
X143803000Y-70646000D01*
X145503000Y-68096000D02*
X145503000Y-70646000D01*
%TO.C,D1*%
X146261000Y-76732000D02*
X144561000Y-76732000D01*
X144561000Y-76732000D02*
X144561000Y-79282000D01*
X146261000Y-76732000D02*
X146261000Y-79282000D01*
%TO.C,U1*%
X151253000Y-80011000D02*
X153263000Y-80011000D01*
X153263000Y-80011000D02*
X153263000Y-79656000D01*
X151253000Y-80011000D02*
X149243000Y-80011000D01*
X149243000Y-80011000D02*
X149243000Y-79656000D01*
X151253000Y-75691000D02*
X153263000Y-75691000D01*
X153263000Y-75691000D02*
X153263000Y-76046000D01*
X151253000Y-75691000D02*
X149243000Y-75691000D01*
X149243000Y-75691000D02*
X149243000Y-76046000D01*
X149243000Y-76046000D02*
X147778000Y-76046000D01*
%TO.C,U2*%
X151384000Y-72010000D02*
X153394000Y-72010000D01*
X153394000Y-72010000D02*
X153394000Y-71655000D01*
X151384000Y-72010000D02*
X149374000Y-72010000D01*
X149374000Y-72010000D02*
X149374000Y-71655000D01*
X151384000Y-67690000D02*
X153394000Y-67690000D01*
X153394000Y-67690000D02*
X153394000Y-68045000D01*
X151384000Y-67690000D02*
X149374000Y-67690000D01*
X149374000Y-67690000D02*
X149374000Y-68045000D01*
X149374000Y-68045000D02*
X147909000Y-68045000D01*
%TO.C,R1*%
X140685436Y-75671000D02*
X142139564Y-75671000D01*
X140685436Y-77491000D02*
X142139564Y-77491000D01*
%TO.C,R2*%
X141320436Y-61320000D02*
X142774564Y-61320000D01*
X141320436Y-63140000D02*
X142774564Y-63140000D01*
%TO.C,F1*%
X162971936Y-84561000D02*
X164426064Y-84561000D01*
X162971936Y-86381000D02*
X164426064Y-86381000D01*
%TO.C,F2*%
X163102936Y-70210000D02*
X164557064Y-70210000D01*
X163102936Y-72030000D02*
X164557064Y-72030000D01*
%TO.C,D4*%
X158199000Y-81431000D02*
X158199000Y-83981000D01*
X156499000Y-81431000D02*
X156499000Y-83981000D01*
X158199000Y-81431000D02*
X156499000Y-81431000D01*
%TO.C,D3*%
X156499000Y-80621000D02*
X156499000Y-78071000D01*
X158199000Y-80621000D02*
X158199000Y-78071000D01*
X156499000Y-80621000D02*
X158199000Y-80621000D01*
%TO.C,D6*%
X158330000Y-67080000D02*
X156630000Y-67080000D01*
X156630000Y-67080000D02*
X156630000Y-69630000D01*
X158330000Y-67080000D02*
X158330000Y-69630000D01*
%TO.C,D5*%
X156630000Y-66270000D02*
X158330000Y-66270000D01*
X158330000Y-66270000D02*
X158330000Y-63720000D01*
X156630000Y-66270000D02*
X156630000Y-63720000D01*
%TD*%
M02*
